<svg id="Layer_1" data-name="Layer 1" xmlns="http://www.w3.org/2000/svg" viewBox="0 0 42.2686 36">
  <defs>
    <style>
      .cls-1 {
        fill: #fff;
      }
    </style>
  </defs>
  <title>in-logo</title>
  <g>
    <g>
      <path class="cls-1" d="M40.2715,29.0508a.6392.6392,0,0,0,.6445-.6758c0-.4766-.29-.708-.8838-.708h-.9531v2.5068h.3584V29.082h.4434l.0087.0137.6895,1.0781h.3828l-.7383-1.1162Zm-.416-.252h-.418v-.8467h.5293c.2754,0,.5869.045.5869.4034C40.5537,28.7656,40.2393,28.7988,39.8555,28.7988Z"/>
      <path class="cls-1" d="M39.8965,26.5527a2.3711,2.3711,0,1,0,2.3721,2.3711A2.3471,2.3471,0,0,0,39.8965,26.5527Zm0,4.4317a2.0609,2.0609,0,1,1,2.0244-2.0606A2.0168,2.0168,0,0,1,39.8965,30.9844Z"/>
    </g>
    <path class="cls-1" d="M33.3359,0H2.6553A2.627,2.627,0,0,0,0,2.5957V33.4023A2.6287,2.6287,0,0,0,2.6553,36H33.3359a2.6336,2.6336,0,0,0,2.6631-2.5977V2.5957A2.6319,2.6319,0,0,0,33.3359,0ZM10.6787,30.6758H5.334v-17.18h5.3447ZM8.0078,11.1489a3.0965,3.0965,0,1,1,3.0947-3.0967A3.0951,3.0951,0,0,1,8.0078,11.1489Zm22.669,19.5269H25.3379V22.3213c0-1.9922-.0342-4.5552-2.7744-4.5552-2.7783,0-3.2022,2.1714-3.2022,4.4126v8.4971h-5.333v-17.18h5.1182v2.3486H19.22A5.6088,5.6088,0,0,1,24.2715,13.07c5.4062,0,6.4053,3.5572,6.4053,8.1841Z"/>
  </g>
</svg>
