<svg id="Layer_3" data-name="Layer 3" xmlns="http://www.w3.org/2000/svg" viewBox="0 0 37.2551 94.5614">
  <defs>
    <style>
      .cls-1 {
        fill: #d8bcbc;
      }

      .cls-2 {
        fill: none;
      }
    </style>
  </defs>
  <title>logo_2</title>
  <path class="cls-1" d="M211.5308,318.1758s19.35-8.5124,24.3133-28.9044l-28.3122-5.301Z" transform="translate(-200.4756 -223.6144)"/>
  <path class="cls-1" d="M236.9557,284.3893a65.0532,65.0532,0,0,0-.9085-24.7163l-23.3358,20.42Z" transform="translate(-200.4756 -223.6144)"/>
  <polygon class="cls-1" points="6.418 54.893 29.184 34.948 3.574 31.146 6.418 54.893"/>
  <path class="cls-1" d="M203.5064,249.5383l-3.0308-25.9239s26.9744,2.8489,34.1743,30.6661Z" transform="translate(-200.4756 -223.6144)"/>
  <polygon class="cls-2" points="35.368 65.657 36.48 60.775 12.236 56.478 35.572 36.059 34.174 30.666 3.031 25.924 3.574 31.146 29.184 34.948 6.418 54.893 7.056 60.356 35.368 65.657"/>
</svg>
